<?xml version="1.0" encoding="UTF-8" standalone="no"?>
<!-- Created with Inkscape (http://www.inkscape.org/) -->

<svg
   width="512"
   height="512"
   viewBox="0 0 512 512"
   version="1.1"
   id="svg1"
   inkscape:version="1.4.3 (0d15f75, 2025-12-25)"
   sodipodi:docname="bat.svg"
   xmlns:inkscape="http://www.inkscape.org/namespaces/inkscape"
   xmlns:sodipodi="http://sodipodi.sourceforge.net/DTD/sodipodi-0.dtd"
   xmlns="http://www.w3.org/2000/svg"
   xmlns:svg="http://www.w3.org/2000/svg">
  <sodipodi:namedview
     id="namedview1"
     pagecolor="#ffffff"
     bordercolor="#000000"
     borderopacity="0.25"
     inkscape:showpageshadow="2"
     inkscape:pageopacity="0.0"
     inkscape:pagecheckerboard="0"
     inkscape:deskcolor="#d1d1d1"
     inkscape:document-units="px"
     inkscape:zoom="1.2675781"
     inkscape:cx="343.96303"
     inkscape:cy="262.31125"
     inkscape:window-width="1536"
     inkscape:window-height="902"
     inkscape:window-x="0"
     inkscape:window-y="0"
     inkscape:window-maximized="1"
     inkscape:current-layer="layer1" />
  <defs
     id="defs1">
    <filter
       inkscape:collect="always"
       style="color-interpolation-filters:sRGB"
       id="filter3"
       x="-0.037261855"
       y="-0.051415583"
       width="1.0745237"
       height="1.1028312">
      <feGaussianBlur
         inkscape:collect="always"
         stdDeviation="0.096877664"
         id="feGaussianBlur3" />
    </filter>
    <symbol
       id="g4">
      <circle
         style="fill:none;fill-opacity:1;stroke:#000000;stroke-width:5;stroke-linecap:round;stroke-linejoin:round;stroke-dasharray:none;stroke-opacity:1;paint-order:stroke markers fill"
         id="path3"
         cx="247.71649"
         cy="256"
         r="37.867489"
         inkscape:label="EyesOuter" />
      <circle
         style="fill:#000000;fill-opacity:1;stroke:none;stroke-width:8.52884;stroke-linecap:round;stroke-linejoin:round;stroke-dasharray:none;stroke-opacity:1;paint-order:stroke markers fill"
         id="path4"
         cx="252.44994"
         cy="256"
         r="14.802605"
         inkscape:label="eyes" />
      <circle
         style="fill:#ffffff;fill-opacity:1;stroke:none;stroke-width:2.16521;stroke-linecap:round;stroke-linejoin:round;stroke-dasharray:none;stroke-opacity:1;paint-order:stroke markers fill"
         id="circle4"
         cx="256.44995"
         cy="258"
         r="3.7579198"
         inkscape:label="White" />
    </symbol>
  </defs>
  <g
     inkscape:label="Layer 1"
     inkscape:groupmode="layer"
     id="layer1">
    <rect
       style="fill:#4d4d4d;fill-opacity:1;stroke:#4d4d4d;stroke-width:10;stroke-linecap:round;stroke-linejoin:round;stroke-dasharray:none;paint-order:stroke markers fill;opacity:0.351"
       id="rect2"
       width="140.42528"
       height="101.76888"
       x="137.26964"
       y="-124.28043"
       ry="9.8613234"
       inkscape:label="IconsUiShadowTemplateDropShadowPickOne" />
    <rect
       style="opacity:0.15;fill:#4d4d4d;fill-opacity:1;stroke:#4d4d4d;stroke-width:10;stroke-linecap:round;stroke-linejoin:round;stroke-dasharray:none;paint-order:stroke markers fill;filter:url(#filter3)"
       id="rect3"
       width="140.42528"
       height="101.76888"
       x="130.16948"
       y="-131.38058"
       ry="9.8613234"
       inkscape:label="IconsUiShadowTemplateSoftShadowPickOne" />
    <rect
       style="fill:#fce8b1;fill-opacity:1;stroke:#4d4d4d;stroke-width:10;stroke-linecap:round;stroke-linejoin:round;stroke-dasharray:none;paint-order:stroke markers fill"
       id="rect1"
       width="140.425"
       height="101.76888"
       x="134.11401"
       y="-127.80277"
       ry="10"
       inkscape:label="IconsUiShadowTemplateObject" />
    <rect
       style="opacity:0.4;fill:#fcffff;fill-opacity:1;stroke:none;stroke-width:5.03876;stroke-linecap:round;stroke-linejoin:round;stroke-dasharray:none;paint-order:stroke markers fill"
       id="rect4"
       width="70.75679"
       height="51.278896"
       x="134.29173"
       y="-126.9584"
       ry="5.0387602"
       inkscape:label="Highlight" />
    <path
       d="m 195.44748,101.43262 c 7.56347,-0.0137 17.96455,8.27102 31.83203,29.90431 9.11442,14.21848 17.94806,24.07487 26.3711,30.57617 a 46.939907,102.16333 0 0 0 -15.68555,32.6543 c -23.21763,-1.51001 -42.07692,-2.77894 -47.76367,-3.27344 -13.89214,-1.20801 -19.46124,-89.81665 5.24609,-89.86134 z"
       style="opacity:1;stroke-width:5;stroke-linecap:round;stroke-linejoin:round;paint-order:stroke markers fill;fill:#7a7a8a"
       id="path10" />
    <path
       style="opacity:1;fill:#7a7a8a;stroke-width:5;stroke-linecap:round;stroke-linejoin:round;paint-order:stroke markers fill"
       d="m 244.42275,246.13868 c 0,0 -99.40216,-126.22496 -150.68105,-59.16795 -51.27889,67.05701 -19.58427,67.08655 0.78891,88.35747 34.97139,36.5124 151.46995,7.88906 151.46995,7.88906 z"
       id="path11"
       sodipodi:nodetypes="csacc" />
    <path
       d="m 316.55252,101.43262 c -7.56347,-0.0137 -17.96455,8.27102 -31.83203,29.90431 -9.11442,14.21848 -17.94806,24.07487 -26.3711,30.57617 a 46.939907,102.16333 0 0 1 15.68555,32.6543 c 23.21763,-1.51001 42.07692,-2.77894 47.76367,-3.27344 13.89214,-1.20801 19.46124,-89.81665 -5.24609,-89.86134 z"
       style="opacity:1;stroke-width:5;stroke-linecap:round;stroke-linejoin:round;paint-order:stroke markers fill;fill:#7a7a8a"
       id="path5" />
    <path
       style="opacity:1;fill:#7a7a8a;stroke-width:5;stroke-linecap:round;stroke-linejoin:round;paint-order:stroke markers fill"
       d="m 267.57725,246.13868 c 0,0 99.40216,-126.22496 150.68105,-59.16795 51.27889,67.05701 19.58427,67.08655 -0.78891,88.35747 -34.97139,36.5124 -151.46995,7.88906 -151.46995,7.88906 z"
       id="path12"
       sodipodi:nodetypes="csacc" />
    <path
       id="path1"
       style="opacity:1;stroke-width:5;stroke-linecap:round;stroke-linejoin:round;paint-order:stroke markers fill;fill:#7a7a8a"
       d="m 302.93991,256 c 0,56.42325 -9.46295,102.16333 -46.93991,102.16333 -37.47696,0 -46.93991,-45.74008 -46.93991,-102.16333 0,-56.42325 21.01571,-102.16333 46.93991,-102.16333 25.9242,0 46.93991,45.74008 46.93991,102.16333 z"
       sodipodi:nodetypes="sasss" />
  </g>
</svg>
