<?xml version="1.0" encoding="UTF-8" standalone="no"?>
<!-- Created with Inkscape (http://www.inkscape.org/) -->

<svg
   width="512"
   height="512"
   viewBox="0 0 512 512"
   version="1.1"
   id="svg1"
   inkscape:version="1.4.3 (0d15f75, 2025-12-25)"
   sodipodi:docname="dynamite.svg"
   xml:space="preserve"
   xmlns:inkscape="http://www.inkscape.org/namespaces/inkscape"
   xmlns:sodipodi="http://sodipodi.sourceforge.net/DTD/sodipodi-0.dtd"
   xmlns="http://www.w3.org/2000/svg"
   xmlns:svg="http://www.w3.org/2000/svg"><sodipodi:namedview
     id="namedview1"
     pagecolor="#ffffff"
     bordercolor="#000000"
     borderopacity="0.25"
     inkscape:showpageshadow="2"
     inkscape:pageopacity="0.0"
     inkscape:pagecheckerboard="0"
     inkscape:deskcolor="#d1d1d1"
     inkscape:document-units="px"
     inkscape:zoom="0.83068678"
     inkscape:cx="241.96846"
     inkscape:cy="413.51326"
     inkscape:window-width="1536"
     inkscape:window-height="902"
     inkscape:window-x="0"
     inkscape:window-y="0"
     inkscape:window-maximized="1"
     inkscape:current-layer="layer1" /><defs
     id="defs1"><inkscape:path-effect
       effect="spiro"
       id="path-effect10"
       is_visible="true"
       lpeversion="1" /><filter
       inkscape:collect="always"
       style="color-interpolation-filters:sRGB"
       id="filter3"
       x="-0.037261855"
       y="-0.051415583"
       width="1.0745237"
       height="1.1028312"><feGaussianBlur
         inkscape:collect="always"
         stdDeviation="0.096877664"
         id="feGaussianBlur3" /></filter><symbol
       id="g4"><circle
         style="fill:none;fill-opacity:1;stroke:#000000;stroke-width:5;stroke-linecap:round;stroke-linejoin:round;stroke-dasharray:none;stroke-opacity:1;paint-order:stroke markers fill"
         id="path3"
         cx="247.71649"
         cy="256"
         r="37.867489"
         inkscape:label="EyesOuter" /><circle
         style="fill:#000000;fill-opacity:1;stroke:none;stroke-width:8.52884;stroke-linecap:round;stroke-linejoin:round;stroke-dasharray:none;stroke-opacity:1;paint-order:stroke markers fill"
         id="path4"
         cx="252.44994"
         cy="256"
         r="14.802605"
         inkscape:label="eyes" /><circle
         style="fill:#ffffff;fill-opacity:1;stroke:none;stroke-width:2.16521;stroke-linecap:round;stroke-linejoin:round;stroke-dasharray:none;stroke-opacity:1;paint-order:stroke markers fill"
         id="circle4"
         cx="256.44995"
         cy="258"
         r="3.7579198"
         inkscape:label="White" /></symbol></defs><g
     inkscape:label="Layer 1"
     inkscape:groupmode="layer"
     id="layer1"><rect
       style="fill:#4d4d4d;fill-opacity:1;stroke:#4d4d4d;stroke-width:10;stroke-linecap:round;stroke-linejoin:round;stroke-dasharray:none;paint-order:stroke markers fill;opacity:0.351"
       id="rect2"
       width="140.42528"
       height="101.76888"
       x="137.26964"
       y="-124.28043"
       ry="9.8613234"
       inkscape:label="IconsUiShadowTemplateDropShadowPickOne" /><rect
       style="opacity:0.15;fill:#4d4d4d;fill-opacity:1;stroke:#4d4d4d;stroke-width:10;stroke-linecap:round;stroke-linejoin:round;stroke-dasharray:none;paint-order:stroke markers fill;filter:url(#filter3)"
       id="rect3"
       width="140.42528"
       height="101.76888"
       x="130.16948"
       y="-131.38058"
       ry="9.8613234"
       inkscape:label="IconsUiShadowTemplateSoftShadowPickOne" /><rect
       style="fill:#fce8b1;fill-opacity:1;stroke:#4d4d4d;stroke-width:10;stroke-linecap:round;stroke-linejoin:round;stroke-dasharray:none;paint-order:stroke markers fill"
       id="rect1"
       width="140.425"
       height="101.76888"
       x="134.11401"
       y="-127.80277"
       ry="10"
       inkscape:label="IconsUiShadowTemplateObject" /><rect
       style="opacity:0.4;fill:#fcffff;fill-opacity:1;stroke:none;stroke-width:5.03876;stroke-linecap:round;stroke-linejoin:round;stroke-dasharray:none;paint-order:stroke markers fill"
       id="rect4"
       width="70.75679"
       height="51.278896"
       x="134.29173"
       y="-126.9584"
       ry="5.0387602"
       inkscape:label="Highlight" /><g
       id="g13"
       transform="matrix(1.7131272,-0.30924209,0.30924209,1.7131272,-139.65626,-231.24273)"><path
         id="rect5"
         style="fill:#c9a866;stroke-width:3.77403;stroke-linecap:round;stroke-linejoin:round;paint-order:stroke markers fill"
         d="m 168.81373,257.56392 h 5.73891 c 15.58963,0 28.14012,4.55049 28.14012,20.14011 v 101.05254 c 0,15.58962 -12.55049,28.14011 -28.14012,28.14011 h -5.73891 c -15.58962,0 -28.14012,-12.55049 -28.14012,-28.14011 V 277.70403 c 0,-15.58962 12.5505,-20.14011 28.14012,-20.14011 z"
         sodipodi:nodetypes="sssssssss" /><path
         d="m 202.69155,276.10074 c -0.006,15.58471 -12.55288,20.12875 -28.13897,20.12874 l -5.73932,-6e-4 c -15.58962,0 -28.14013,-4.54916 -28.14013,-20.13878 l 7.5e-4,102.66667 c 0,15.58963 12.54953,28.14046 28.13915,28.14047 l 5.7403,-0.001 c 15.58963,0 28.13878,-12.5505 28.13878,-28.14013 z"
         style="fill:#4a8c3f;stroke-width:3.77403;stroke-linecap:round;stroke-linejoin:round;paint-order:stroke markers fill"
         id="path9"
         sodipodi:nodetypes="ccccccccc" /><path
         style="fill:#4a8c3f;stroke-width:3.83904;stroke-linecap:round;stroke-linejoin:round;paint-order:stroke markers fill"
         id="path13"
         d="m 177.18396,272.0422 c 0.32984,-1.01768 0.73614,-2.01369 0.98954,-3.05305 0.81927,-3.36038 1.90526,-9.55114 2.26127,-12.89647 0.51436,-4.83321 0.76271,-9.13447 -0.20067,-13.94174 -0.4389,-2.19012 -1.33859,-4.26207 -2.00789,-6.39311 -2.27426,-4.00502 -3.0862,-6.09566 -6.23332,-9.33292 -1.15765,-1.19082 -2.536,-2.1451 -3.80401,-3.21765 -6.39242,-5.14847 -13.67345,3.89177 -7.28103,9.04025 v 0 c 0.7089,0.51964 1.49015,0.95282 2.12669,1.55895 1.91921,1.82752 2.75629,3.43318 4.19123,5.65674 0.48876,1.30698 1.14817,2.56231 1.46629,3.92095 0.89208,3.80995 0.6649,7.10847 0.26181,10.99723 -0.21762,2.09959 -0.5821,4.18184 -0.92732,6.26426 -0.78806,4.75358 -0.55723,3.69308 -1.66106,7.18938 -2.97493,7.64981 7.84354,11.85699 10.81847,4.20718 z" /></g></g></svg>
