<?xml version="1.0" encoding="UTF-8" standalone="no"?>
<svg
   width="512"
   height="512"
   viewBox="0 0 512 512"
   version="1.1"
   id="svg9"
   sodipodi:docname="jewel.svg"
   inkscape:version="1.4.4 (dcaf3e7, 2026-05-05)"
   xmlns:inkscape="http://www.inkscape.org/namespaces/inkscape"
   xmlns:sodipodi="http://sodipodi.sourceforge.net/DTD/sodipodi-0.dtd"
   xmlns="http://www.w3.org/2000/svg"
   xmlns:svg="http://www.w3.org/2000/svg">
  <defs
     id="defs9" />
  <sodipodi:namedview
     id="namedview9"
     pagecolor="#ffffff"
     bordercolor="#000000"
     borderopacity="0.25"
     inkscape:showpageshadow="2"
     inkscape:pageopacity="0.0"
     inkscape:pagecheckerboard="0"
     inkscape:deskcolor="#d1d1d1"
     inkscape:zoom="1.2675781"
     inkscape:cx="256.39445"
     inkscape:cy="256"
     inkscape:window-width="1536"
     inkscape:window-height="902"
     inkscape:window-x="0"
     inkscape:window-y="0"
     inkscape:window-maximized="1"
     inkscape:current-layer="svg9" />
  <!-- silhouette + outline -->
  <path
     d="M176 96 H336 L416 208 L256 448 L96 208 Z"
     fill="#f4c34a"
     stroke="#3a2f23"
     stroke-width="24"
     stroke-linejoin="round"
     id="path1" />
  <!-- crown facets -->
  <path
     d="M176 96 H336 L306 208 H206 Z"
     fill="#ffe98a"
     id="path2" />
  <!-- table: brightest -->
  <path
     d="M176 96 L96 208 H206 Z"
     fill="#ffd75e"
     id="path3" />
  <!-- left crown: light -->
  <path
     d="M336 96 L416 208 H306 Z"
     fill="#eab23a"
     id="path4" />
  <!-- right crown: mid -->
  <!-- pavilion facets (converge on the point) -->
  <path
     d="M96 208 H206 L256 448 Z"
     fill="#d89c26"
     id="path5" />
  <!-- left -->
  <path
     d="M206 208 H306 L256 448 Z"
     fill="#f4c34a"
     id="path6" />
  <!-- center: light bounce -->
  <path
     d="M306 208 H416 L256 448 Z"
     fill="#b9821a"
     id="path7" />
  <!-- right: deepest -->
  <!-- facet lines: subtle, single pass -->
  <path
     d="m 216.86373,138.5949 -0.16125,29.7317 22.90292,18.95933 -29.7317,-0.16125 -18.95933,22.90292 0.16125,-29.7317 -22.90292,-18.95933 29.7317,0.16125 z"
     fill="#ffffff"
     id="path9"
     style="display:none;opacity:0.516;mix-blend-mode:luminosity" />
  <path
     d="M96 208 H416 M176 96 L206 208 L256 448 M336 96 L306 208 L256 448"
     fill="none"
     stroke="#3a2f23"
     stroke-width="6"
     opacity="0.35"
     id="path8" />
  <!-- one 4-point sparkle, top-left of table -->
</svg>
